<!-- This is a placeholder for the 192x192 PNG icon -->
<!-- In production, this would be replaced with actual PNG files -->
<!-- For now, we'll create SVG icons that can be easily converted -->

<svg width="192" height="192" viewBox="0 0 192 192" xmlns="http://www.w3.org/2000/svg">
  <defs>
    <linearGradient id="bgGradient" x1="0%" y1="0%" x2="100%" y2="100%">
      <stop offset="0%" style="stop-color:#667eea;stop-opacity:1" />
      <stop offset="100%" style="stop-color:#764ba2;stop-opacity:1" />
    </linearGradient>
  </defs>
  
  <!-- Background -->
  <rect width="192" height="192" rx="20" fill="url(#bgGradient)"/>
  
  <!-- Main Icon - Book with Brain -->
  <g transform="translate(32, 32)">
    <!-- Book Base -->
    <rect x="20" y="40" width="88" height="80" rx="4" fill="white" opacity="0.9"/>
    <rect x="24" y="44" width="80" height="72" rx="2" fill="white"/>
    
    <!-- Book Pages -->
    <line x1="64" y1="50" x2="64" y2="110" stroke="#667eea" stroke-width="2"/>
    <line x1="35" y1="60" x2="55" y2="60" stroke="#667eea" stroke-width="1.5"/>
    <line x1="35" y1="70" x2="55" y2="70" stroke="#667eea" stroke-width="1.5"/>
    <line x1="35" y1="80" x2="55" y2="80" stroke="#667eea" stroke-width="1.5"/>
    <line x1="35" y1="90" x2="55" y2="90" stroke="#667eea" stroke-width="1.5"/>
    
    <line x1="73" y1="60" x2="93" y2="60" stroke="#764ba2" stroke-width="1.5"/>
    <line x1="73" y1="70" x2="93" y2="70" stroke="#764ba2" stroke-width="1.5"/>
    <line x1="73" y1="80" x2="93" y2="80" stroke="#764ba2" stroke-width="1.5"/>
    <line x1="73" y1="90" x2="93" y2="90" stroke="#764ba2" stroke-width="1.5"/>
    
    <!-- Brain Icon -->
    <circle cx="64" cy="25" r="15" fill="#667eea" opacity="0.8"/>
    <path d="M 55 20 Q 60 15 65 20 Q 70 15 75 20 Q 75 25 70 30 Q 65 35 60 30 Q 55 35 50 30 Q 50 25 55 20" 
          fill="white" opacity="0.9"/>
    
    <!-- AI Sparkles -->
    <circle cx="45" cy="15" r="2" fill="#FFD700"/>
    <circle cx="85" cy="18" r="1.5" fill="#FFD700"/>
    <circle cx="42" cy="35" r="1" fill="#FFD700"/>
    <circle cx="88" cy="32" r="1.5" fill="#FFD700"/>
    
    <!-- SAFe Text -->
    <text x="64" y="140" text-anchor="middle" fill="white" font-family="Arial, sans-serif" font-size="12" font-weight="bold">
      SAFe Exams
    </text>
  </g>
</svg>